HIERARCHY
ROOT Hips
{
  OFFSET 53.0467 52.1723 -7.42147
  CHANNELS 6 Xposition Yposition Zposition Zrotation Xrotation Yrotation
  JOINT spine
  {
    OFFSET 0 6.84637 0.3937
    CHANNELS 3 Zrotation Xrotation Yrotation
    JOINT spine1
    {
      OFFSET 0 9.49621 0
      CHANNELS 3 Zrotation Xrotation Yrotation
      JOINT spine2
      {
        OFFSET 0 9.09909 0
        CHANNELS 3 Zrotation Xrotation Yrotation
        JOINT Neck
        {
          OFFSET 0 23.3612 1.11378
          CHANNELS 3 Zrotation Xrotation Yrotation
          JOINT Head
          {
            OFFSET 0 7.05802 0
            CHANNELS 3 Zrotation Xrotation Yrotation
            End Site
            {
              OFFSET 0 17.0844 -5.63419
            }
          }
        }
        JOINT RightShoulder
        {
          OFFSET -3.83136 9.82631 -0.533491
          CHANNELS 3 Zrotation Xrotation Yrotation
          JOINT RightArm
          {
            OFFSET 0 12.8881 0
            CHANNELS 3 Zrotation Xrotation Yrotation
            JOINT RightArmRoll
            {
              OFFSET 0 6.50617 0
              CHANNELS 3 Zrotation Xrotation Yrotation
              JOINT RightForeArm
              {
                OFFSET 0 18.9501 0
                CHANNELS 3 Zrotation Xrotation Yrotation
                JOINT RightForeArmRoll
                {
                  OFFSET 0 7.30092 0
                  CHANNELS 3 Zrotation Xrotation Yrotation
                  JOINT RightHand
                  {
                    OFFSET 0 14.6514 0
                    CHANNELS 3 Zrotation Xrotation Yrotation
                    End Site
                    {
                      OFFSET 0 0 0
                    }
                  }
                }
              }
            }
          }
        }
        JOINT LeftShoulder
        {
          OFFSET 3.83136 9.82631 -0.533491
          CHANNELS 3 Zrotation Xrotation Yrotation
          JOINT LeftArm
          {
            OFFSET 0 12.8881 0
            CHANNELS 3 Zrotation Xrotation Yrotation
            JOINT LeftArmRoll
            {
              OFFSET 0 6.50617 0
              CHANNELS 3 Zrotation Xrotation Yrotation
              JOINT LeftForeArm
              {
                OFFSET 0 18.9501 0
                CHANNELS 3 Zrotation Xrotation Yrotation
                JOINT LeftForeArmRoll
                {
                  OFFSET 0 7.30093 0
                  CHANNELS 3 Zrotation Xrotation Yrotation
                  JOINT LeftHand
                  {
                    OFFSET 0 14.6514 0
                    CHANNELS 3 Zrotation Xrotation Yrotation
                    End Site
                    {
                      OFFSET 0 0 0
                    }
                  }
                }
              }
            }
          }
        }
      }
    }
  }
  JOINT RightUpLeg
  {
    OFFSET -6.06837 -1.11278 -0.933477
    CHANNELS 3 Zrotation Xrotation Yrotation
    JOINT RightUpLegRoll
    {
      OFFSET 0 17.1796 0
      CHANNELS 3 Zrotation Xrotation Yrotation
      JOINT RightLeg
      {
        OFFSET 0 -21.2743 0
        CHANNELS 3 Zrotation Xrotation Yrotation
        JOINT RightLegRoll
        {
          OFFSET 0 21.3439 0
          CHANNELS 3 Zrotation Xrotation Yrotation
          JOINT RightFoot
          {
            OFFSET 0 17.7652 0
            CHANNELS 3 Zrotation Xrotation Yrotation
            JOINT RightToeBase
            {
              OFFSET 0 14.8508 0
              CHANNELS 3 Zrotation Xrotation Yrotation
              End Site
              {
                OFFSET 0.0062947 7.19214 -0.829004
              }
            }
          }
        }
      }
    }
  }
  JOINT LeftUpLeg
  {
    OFFSET 6.06837 -1.11278 -0.933477
    CHANNELS 3 Zrotation Xrotation Yrotation
    JOINT LeftUpLegRoll
    {
      OFFSET 0 17.1797 0
      CHANNELS 3 Zrotation Xrotation Yrotation
      JOINT LeftLeg
      {
        OFFSET 0 21.2742 0
        CHANNELS 3 Zrotation Xrotation Yrotation
        JOINT LeftLegRoll
        {
          OFFSET 0 21.5412 0
          CHANNELS 3 Zrotation Xrotation Yrotation
          JOINT LeftFoot
          {
            OFFSET 0 17.5679 0
            CHANNELS 3 Zrotation Xrotation Yrotation
            JOINT LeftToeBase
            {
              OFFSET 0 14.8508 0
              CHANNELS 3 Zrotation Xrotation Yrotation
              End Site
              {
                OFFSET -0.0282102 7.19214 -0.829005
              }
            }
          }
        }
      }
    }
  }
}
MOTION
Frames: 8
Frame Time: 0.00208333
49.7931 86.7313 20.3127 0.741523 3.71007 -2.38974 1.07535 -1.92195 0.969019 2.18434 0.175717 1.82915 2.16328 1.81975 1.79315 -15.8059 4.06454 -0.530996 12.5244 9.82155 -4.09682 51.1167 -7.49113 -4.35513 123.869 39.6596 -10.8184 -3.23071e-006 -9.41474e-007 -3.46837e-006 24.1703 0.175877 -0.893061 3.02955e-006 7.77251e-006 -3.1444 8.03 -4.9514 0.697713 -76.8343 -8.41354 5.58551 -99.7943 36.6447 -11.5883 1.82793e-006 -1.76294e-006 1.13829e-006 -23.5006 0.170503 0.483365 -2.93775e-005 3.33232e-006 3.12627 -8.02987 -4.9514 -0.697696 176.14 19.9636 0.250441 -180 7.01577e-015 179.063 175.159 21.3809 -179.559 2.78423e-006 2.67556e-006 0.350344 -19.7084 68.5331 19.9858 8.13649 25.2327 -3.48773 -177.476 17.2976 0.506292 4.54188e-006 -4.6773e-006 -0.856271 -1.88759 -22.6225 0.415492 -5.18302e-006 -2.55945e-006 -0.415781 20.2886 72.2769 -23.6242 -8.13428 25.2357 3.48671 
49.7863 86.7249 20.2943 0.742655 3.7267 -2.38425 1.07466 -1.91938 0.969735 2.18201 0.180853 1.83057 2.16094 1.82489 1.79462 -15.8112 4.07998 -0.542651 12.5252 9.7999 -4.1095 51.1319 -7.49457 -4.35819 123.819 39.6073 -10.7648 -3.23071e-006 -9.41474e-007 -3.46837e-006 24.1684 0.17588 -0.891222 3.02955e-006 7.77251e-006 -3.14439 8.03 -4.9514 0.697713 -76.8236 -8.41189 5.5846 -99.8129 36.6199 -11.6036 1.82793e-006 -1.76294e-006 1.13829e-006 -23.4893 0.171133 0.493977 -2.93775e-005 3.33232e-006 3.12658 -8.02987 -4.9514 -0.697696 176.137 19.9932 0.25497 -180 7.01577e-015 179.063 175.155 21.3963 -179.556 2.78423e-006 2.67556e-006 0.350344 -19.7126 68.5357 19.9885 8.13649 25.2327 -3.48773 -177.476 17.3306 0.50743 4.54188e-006 -4.6773e-006 -0.856218 -1.8904 -22.6393 0.414171 -5.18302e-006 -2.55945e-006 -0.415781 20.2891 72.2773 -23.6236 -8.13428 25.2357 3.48671 
49.7895 86.7237 20.2907 0.743747 3.74301 -2.37872 1.07401 -1.91682 0.970504 2.17972 0.185961 1.83204 2.15862 1.82999 1.79613 -15.8167 4.0961 -0.554543 12.526 9.77755 -4.1225 51.1472 -7.49815 -4.36137 123.77 39.5541 -10.7116 -3.23071e-006 -9.41474e-007 -3.46837e-006 24.1667 0.175882 -0.889087 3.02955e-006 7.77251e-006 -3.14438 8.03 -4.9514 0.697713 -76.8131 -8.41022 5.58368 -99.831 36.5946 -11.6196 1.82793e-006 -1.76294e-006 1.13829e-006 -23.4779 0.171751 0.504635 -2.93775e-005 3.33232e-006 3.12686 -8.02987 -4.9514 -0.697696 176.133 20.0223 0.259394 -180 7.01577e-015 179.063 175.15 21.4119 -179.554 2.78423e-006 2.67556e-006 0.350344 -19.717 68.5385 19.9913 8.13649 25.2327 -3.48773 -177.475 17.3633 0.508513 4.54188e-006 -4.6773e-006 -0.856174 -1.89318 -22.6561 0.412847 -5.18302e-006 -2.55945e-006 -0.415781 20.2894 72.2778 -23.623 -8.13428 25.2357 3.48671 
49.7922 86.7224 20.3005 0.744812 3.7591 -2.37317 1.07338 -1.91428 0.971311 2.17744 0.191048 1.83355 2.15633 1.83508 1.79767 -15.8225 4.11271 -0.5666 12.5268 9.7547 -4.13574 51.1626 -7.50185 -4.36463 123.72 39.5005 -10.6585 -3.23071e-006 -9.41474e-007 -3.46837e-006 24.1652 0.175884 -0.886745 3.02955e-006 7.77251e-006 -3.14437 8.03 -4.9514 0.697713 -76.8028 -8.40855 5.58277 -99.8486 36.5688 -11.6359 1.82793e-006 -1.76294e-006 1.13829e-006 -23.4665 0.172361 0.515326 -2.93775e-005 3.33232e-006 3.12712 -8.02987 -4.9514 -0.697696 176.13 20.0511 0.263745 -180 7.01577e-015 179.063 175.146 21.4274 -179.551 2.78423e-006 2.67556e-006 0.350344 -19.7214 68.5414 19.9943 8.13649 25.2327 -3.48773 -177.474 17.3957 0.509558 4.54188e-006 -4.6773e-006 -0.856135 -1.89595 -22.6729 0.41152 -5.18302e-006 -2.55945e-006 -0.415781 20.2898 72.2782 -23.6225 -8.13428 25.2357 3.48671 
49.7907 86.7205 20.2898 0.745859 3.77506 -2.36761 1.07276 -1.91174 0.972139 2.17518 0.196123 1.83507 2.15405 1.84016 1.79924 -15.8284 4.1296 -0.578752 12.5277 9.73158 -4.1491 51.178 -7.5056 -4.36794 123.67 39.4465 -10.6056 -3.23071e-006 -9.41474e-007 -3.46837e-006 24.1637 0.175886 -0.884285 3.02955e-006 7.77251e-006 -3.14435 8.03 -4.9514 0.697713 -76.7926 -8.40688 5.58186 -99.8661 36.5428 -11.6524 1.82793e-006 -1.76294e-006 1.13829e-006 -23.4551 0.172965 0.526036 -2.93775e-005 3.33232e-006 3.12738 -8.02987 -4.9514 -0.697696 176.127 20.0798 0.268054 -180 7.01577e-015 179.063 175.142 21.443 -179.549 2.78423e-006 2.67556e-006 0.350344 -19.7259 68.5443 19.9974 8.13649 25.2327 -3.48773 -177.473 17.4279 0.510581 4.54188e-006 -4.6773e-006 -0.8561 -1.89871 -22.6897 0.410191 -5.18302e-006 -2.55945e-006 -0.415781 20.2901 72.2787 -23.6219 -8.13428 25.2357 3.48671 
49.7919 86.7189 20.2846 0.7469 3.79099 -2.36204 1.07214 -1.9092 0.972972 2.17292 0.201195 1.83659 2.15177 1.84523 1.8008 -15.8344 4.14656 -0.590927 12.5285 9.70838 -4.1625 51.1934 -7.50937 -4.37126 123.62 39.3924 -10.5528 -3.23071e-006 -9.41474e-007 -3.46837e-006 24.1622 0.175888 -0.881795 3.02955e-006 7.77251e-006 -3.14433 8.03 -4.9514 0.697713 -76.7823 -8.4052 5.58094 -99.8835 36.5168 -11.6689 1.82793e-006 -1.76294e-006 1.13829e-006 -23.4438 0.173568 0.53675 -2.93775e-005 3.33232e-006 3.12764 -8.02987 -4.9514 -0.697696 176.123 20.1084 0.272355 -180 7.01577e-015 179.063 175.138 21.4585 -179.546 2.78423e-006 2.67556e-006 0.350344 -19.7304 68.5473 20.0004 8.13649 25.2327 -3.48773 -177.473 17.4601 0.511599 4.54188e-006 -4.6773e-006 -0.856066 -1.90147 -22.7065 0.408862 -5.18302e-006 -2.55945e-006 -0.415781 20.2904 72.2792 -23.6213 -8.13428 25.2357 3.48671 
49.7922 86.7156 20.2797 0.747944 3.80698 -2.35648 1.07152 -1.90666 0.973795 2.17065 0.206274 1.83811 2.14949 1.85031 1.80236 -15.8403 4.16338 -0.603057 12.5293 9.68532 -4.17583 51.2088 -7.51311 -4.37455 123.57 39.3384 -10.5 -3.23071e-006 -9.41474e-007 -3.46837e-006 24.1607 0.17589 -0.879364 3.02955e-006 7.77251e-006 -3.14432 8.03 -4.9514 0.697713 -76.7721 -8.40352 5.58003 -99.901 36.4909 -11.6853 1.82793e-006 -1.76294e-006 1.13829e-006 -23.4324 0.174174 0.547454 -2.93775e-005 3.33232e-006 3.1279 -8.02987 -4.9514 -0.697696 176.12 20.1371 0.276678 -180 7.01577e-015 179.063 175.133 21.4741 -179.544 2.78423e-006 2.67556e-006 0.350344 -19.7349 68.5503 20.0035 8.13649 25.2327 -3.48773 -177.472 17.4923 0.512628 4.54188e-006 -4.6773e-006 -0.85603 -1.90423 -22.7233 0.407533 -5.18302e-006 -2.55945e-006 -0.415781 20.2907 72.2797 -23.6207 -8.13428 25.2357 3.48671 
49.7927 86.7029 20.2375 0.749003 3.82313 -2.35094 1.07088 -1.90412 0.974591 2.16837 0.211366 1.8396 2.14719 1.85541 1.80389 -15.8459 4.17985 -0.615069 12.53 9.66262 -4.189 51.2241 -7.51677 -4.37779 123.521 39.2847 -10.4473 -3.23071e-006 -9.41474e-007 -3.46837e-006 24.1592 0.175892 -0.877081 3.02955e-006 7.77251e-006 -3.14431 8.03 -4.9514 0.697713 -76.7617 -8.40186 5.57912 -99.9188 36.4652 -11.7015 1.82793e-006 -1.76294e-006 1.13829e-006 -23.421 0.174786 0.558136 -2.93775e-005 3.33232e-006 3.12817 -8.02987 -4.9514 -0.697696 176.116 20.166 0.281057 -180 -7.01577e-015 179.063 175.129 21.4896 -179.541 2.78423e-006 2.67556e-006 0.350344 -19.7393 68.5532 20.0064 8.13649 25.2327 -3.48773 -177.471 17.5248 0.513686 4.54188e-006 -4.6773e-006 -0.855989 -1.90701 -22.7401 0.406205 -5.18302e-006 -2.55945e-006 -0.415781 20.291 72.2802 -23.6201 -8.13428 25.2357 3.48671 
